<?xml version="1.0" encoding="utf-8"?>
<!-- Generator: Adobe Illustrator 26.0.3, SVG Export Plug-In . SVG Version: 6.00 Build 0)  -->
<svg version="1.1" id="Layer_1" xmlns="http://www.w3.org/2000/svg" xmlns:xlink="http://www.w3.org/1999/xlink" x="0px" y="0px"
	 viewBox="0 0 955.9 242.8" style="enable-background:new 0 0 955.9 242.8;" xml:space="preserve">
<style type="text/css">
	.st0{fill:#19325C;}
	.st1{opacity:0.54;}
</style>
<path class="st0" d="M73.5,115.1c-3.6,0-6.6-2.9-6.6-6.6V26.1l-12.4,7.4V128h49.8c3.6,0,6.6,2.9,6.6,6.6v73.8l12.4-7.4v-86
	L73.5,115.1L73.5,115.1z"/>
<path class="st0" d="M98.6,92.9C95,92.9,92,90,92,86.3V11.2l-12,7.1V102h49.8c3.6,0,6.6,2.9,6.6,6.6v84.7l12-7.1V92.9H98.6
	L98.6,92.9z"/>
<path class="st0" d="M47.9,141.2c-3.6,0-6.6-2.9-6.6-6.6V41.3L18.7,54.7c-3,1.8-4.8,5-4.8,8.5v93c0,3.5,1.8,6.7,4.8,8.5l77.9,46.2
	c0.4,0.2,0.7,0.4,1.1,0.6v-70.3H47.9z"/>
<path class="st0" d="M184.6,54.7L106.7,8.4c-0.5-0.3-1-0.5-1.5-0.7v72H155c3.6,0,6.6,2.9,6.6,6.6v92l23-13.6c3-1.8,4.8-5,4.8-8.5
	v-93C189.4,59.7,187.6,56.5,184.6,54.7"/>
<g>
	<path class="st0" d="M328.6,94.3h-25.5c0-5.3-6.3-12.5-17.2-12.5c-7.7,0-17.1,3.4-17.1,9.5c0,5.2,7,7.2,22.1,11.1
		c16.7,4.4,40.4,10,40.4,33.5c0,20.3-17.8,33-42.7,33c-33.3,0-47.2-22.5-47.2-39.1h25.5c0,0,2,16.9,23.1,16.9
		c11.4,0,15.6-4.8,15.6-9.4c0-6.7-8.9-9.1-18.8-11.4c-16-3.8-44-9.7-44-33.3c0-19.4,19.1-33.8,43.3-33.8
		C313.9,58.8,328.6,77.7,328.6,94.3z"/>
	<path class="st0" d="M453,113.8c0,30.4-24.7,55.1-54.9,55.1c-30.5,0-54.9-24.7-54.9-55.1c0-30.2,24.4-55.1,54.9-55.1
		C428.3,58.8,453,83.6,453,113.8z M366.7,113.8c0,17.4,14.1,31.3,31.4,31.3c17.1,0,31.1-13.9,31.1-31.3c0-17.2-14.1-31.1-31.1-31.1
		C380.7,82.7,366.7,96.6,366.7,113.8z"/>
	<path class="st0" d="M573.8,167H548l-53.8-65.1V167h-25.8V60.6h25.8l53.8,64.9V60.6h25.8V167z"/>
	<path class="st0" d="M699.1,113.8c0,30.4-24.7,55.1-54.9,55.1c-30.5,0-54.9-24.7-54.9-55.1c0-30.2,24.4-55.1,54.9-55.1
		C674.4,58.8,699.1,83.6,699.1,113.8z M612.7,113.8c0,17.4,14.1,31.3,31.4,31.3c17.1,0,31.1-13.9,31.1-31.3
		c0-17.2-14.1-31.1-31.1-31.1C626.8,82.7,612.7,96.6,612.7,113.8z"/>
	<path class="st0" d="M819.2,113.7c0,31-23,53.3-56.2,53.3h-47V60.8l47.1-0.2C798.1,60.5,819.2,83,819.2,113.7z M741.6,143.2H763
		c17.8,0,30.2-11.7,30.2-29.6c0-19.1-12-29.3-30.2-29.3h-21.4V143.2z"/>
	<path class="st0" d="M907.2,150.4h-51.3l-7,16.6h-27.2l45.5-106.4h28.6L941.4,167H914L907.2,150.4z M898.2,129.5l-16.6-39.7
		l-16.9,39.7H898.2z"/>
</g>
<g class="st1">
	<path d="M732.2,181.9H716v55h7.5v-22.3h8.7c6,0,10.7-1.4,13.9-4.3c3.3-2.9,4.9-7,4.9-12s-1.6-9-4.8-12
		C743.1,183.4,738.4,181.9,732.2,181.9z M743.5,198.3c0,4.2-1.3,9.1-11.2,9.1h-8.7V189h8.7c4.1,0,7,0.8,8.7,2.4
		C742.6,193,743.5,195.2,743.5,198.3z"/>
	<path d="M793.9,185c-4.1-2.4-8.7-3.6-13.7-3.6s-9.7,1.2-13.7,3.6c-4.1,2.4-7.3,5.8-9.6,10s-3.4,9.1-3.4,14.4
		c0,5.3,1.2,10.1,3.4,14.4c2.3,4.3,5.5,7.7,9.6,10.1l0,0c4.1,2.4,8.7,3.6,13.7,3.6s9.7-1.2,13.7-3.6c4.1-2.4,7.3-5.8,9.6-10.1
		s3.4-9.1,3.4-14.4c0-5.3-1.2-10.2-3.4-14.4S798,187.4,793.9,185z M780.2,188.5c3.6,0,6.9,0.8,9.8,2.5c2.9,1.7,5.1,4,6.8,7.2
		c1.7,3.1,2.5,6.9,2.5,11.2c0,4.2-0.9,8-2.5,11.1c-1.7,3.1-3.9,5.5-6.8,7.2c-2.9,1.7-6.2,2.5-9.8,2.5s-6.9-0.8-9.8-2.5
		c-2.9-1.7-5.2-4.1-6.8-7.2c-1.7-3.1-2.6-6.9-2.6-11.1c0-4.3,0.9-8.1,2.6-11.2c1.7-3.1,4-5.5,6.8-7.2
		C773.3,189.4,776.6,188.5,780.2,188.5z"/>
	<polygon points="845.5,222.1 819.1,181.9 812.5,181.9 812.5,236.9 820.1,236.9 820.1,196.6 846.5,236.9 850.9,236.9 853.1,236.9 
		853.1,234.7 853.1,181.9 845.5,181.9 	"/>
	<polygon points="856.6,188.9 871,188.9 871,236.9 878.6,236.9 878.6,188.9 893,188.9 893,181.9 856.6,181.9 	"/>
	<path d="M944.6,195c-2.3-4.3-5.5-7.6-9.6-10s-8.7-3.6-13.7-3.6s-9.7,1.2-13.7,3.6c-4.1,2.4-7.3,5.8-9.6,10s-3.4,9.1-3.4,14.4
		c0,5.3,1.2,10.1,3.4,14.4c2.3,4.3,5.5,7.7,9.6,10.1c4.1,2.4,8.7,3.6,13.7,3.6s9.7-1.2,13.7-3.6c4.1-2.4,7.3-5.8,9.6-10.1
		c2.3-4.2,3.4-9.1,3.4-14.4S946.9,199.3,944.6,195z M911.5,227.7c-2.9-1.7-5.2-4.1-6.8-7.2c-1.7-3.1-2.6-6.9-2.6-11.1
		c0-4.3,0.9-8.1,2.6-11.2c1.7-3.1,4-5.5,6.8-7.2c2.9-1.7,6.2-2.5,9.8-2.5s6.9,0.8,9.8,2.5c2.9,1.7,5.1,4,6.8,7.2
		c1.7,3.1,2.5,6.9,2.5,11.2c0,4.2-0.9,8-2.5,11.1c-1.7,3.1-3.9,5.5-6.8,7.2c-2.9,1.7-6.2,2.5-9.8,2.5
		C917.6,230.3,914.4,229.4,911.5,227.7z"/>
</g>
</svg>
